# xmcd CD database file
#
# Track frame offsets:
#	150
#	4052
#	20005
#	45940
#	77867
#	89257
#	114307
#	127772
#	132825
#	137495
#	153430
#	164857
#	178377
#
# Disc length: 2578 seconds
#
# Revision: 1
# Processed by: cddbd v1.5.1PL2 Copyright (c) Steve Scherf et al.
# Submitted via: CDex 1.51
#
DISCID=a20a100d
DTITLE=ドラマCD - スクールランブル: 播磨拳児
DYEAR=2005
DGENRE=Anime
TTITLE0=＃00: Title Call
TTITLE1=播磨拳児 (高橋広樹) - 銀河沿線'05 <Vo>
TTITLE2=＃01: トゥルー・ホリデー
TTITLE3=＃02: 恋は舞い降りた
TTITLE4=浪花十三 - 破天荒ロボ ドジビロンのテーマ <Vo>
TTITLE5=ミニドラマI〜V
TTITLE6=鬼哭丸少年合唱団 - 海の男はよ <Vo>
TTITLE7=[CM]
TTITLE8=[予告]
TTITLE9=播磨拳児 (高橋広樹) - 銀河沿線'05 <Off Vocal Version>
TTITLE10=浪花十三 - 破天荒ロボ ドジビロンのテーマ <Off Vocal Version>
TTITLE11=鬼哭丸少年合唱団 - 海の男はよ <Off Vocal Version>
TTITLE12=スクランブル・ショック!!
EXTD=YEAR: 2005
EXTT0=
EXTT1=
EXTT2=
EXTT3=
EXTT4=
EXTT5=
EXTT6=
EXTT7=
EXTT8=
EXTT9=
EXTT10=
EXTT11=
EXTT12=
PLAYORDER=
